<svg xmlns="http://www.w3.org/2000/svg" viewBox="0 0 365.86 366.9"><title>safari-pinned-tab</title><g id="Layer_2" data-name="Layer 2"><g id="Layer_1-2" data-name="Layer 1"><path d="M183.44,366.9C82.29,366.9,0,284.6,0,183.45S82.29,0,183.44,0A183.19,183.19,0,0,1,323.9,65.42a27.19,27.19,0,0,1-41.61,35,128.87,128.87,0,0,0-98.85-46.07c-71.18,0-129.09,57.92-129.09,129.1A129.11,129.11,0,0,0,285,263.14a27.18,27.18,0,1,1,42.74,33.58A182.49,182.49,0,0,1,183.44,366.9Z"/><polygon points="238.48 111.36 365.86 157.55 342.19 24.13 238.48 111.36"/><circle cx="183.45" cy="183.45" r="47.56"/></g></g></svg>