<svg xmlns="http://www.w3.org/2000/svg" viewBox="0 0 933.08 145.06"><defs><style>.cls-1{fill:#0cedb2;}.cls-2{fill:#f42766;}.cls-3{fill:#2b35e2;}.cls-4{fill:#fcd015;}</style></defs><title>logo-full</title><g id="Layer_2" data-name="Layer 2"><g id="Layer_1-2" data-name="Layer 1"><path d="M247.89,42.17a35.06,35.06,0,0,1,15.73,13.07q5.46,8.52,5.47,20.22a36.69,36.69,0,0,1-5.47,20.13,34.84,34.84,0,0,1-15.73,13.15q-10.26,4.56-24.09,4.56h-24V144H180V37.61H223.8Q237.63,37.61,247.89,42.17Zm-5.4,48.94q6.69-5.48,6.69-15.65T242.49,59.8q-6.69-5.46-19.6-5.47H199.78V96.58h23.11Q235.81,96.58,242.49,91.11Z"/><path d="M344.7,70.52q9.49,8.58,9.5,25.91V144H336.26v-9.88a22.07,22.07,0,0,1-9.95,8.13,38.84,38.84,0,0,1-15.58,2.81,38.29,38.29,0,0,1-16-3.11,24.63,24.63,0,0,1-10.56-8.66,22,22,0,0,1-3.72-12.54q0-10.95,8.13-17.56t25.61-6.61h21V95.37q0-8.52-5.09-13.07T315,77.74a43.86,43.86,0,0,0-13.45,2.12,33.33,33.33,0,0,0-11.18,5.93L282.92,72a46.23,46.23,0,0,1,15.35-7.45,68.33,68.33,0,0,1,19-2.58Q335.2,61.93,344.7,70.52ZM327.37,128a17.8,17.8,0,0,0,7.83-9.35V109.2H315.59q-16.41,0-16.41,10.79a9.68,9.68,0,0,0,4.1,8.2q4.11,3,11.4,3A24.52,24.52,0,0,0,327.37,128Z"/><path d="M449.18,70.9q9.27,9,9.27,26.59V144h-19V99.93q0-10.65-5-16T420.15,78.5q-10.48,0-16.56,6.3T397.51,103v41h-19V62.84H396.6V73.33a29.63,29.63,0,0,1,11.85-8.51,42.75,42.75,0,0,1,16.11-2.89Q439.91,61.93,449.18,70.9Z"/><path d="M497.66,139.74a38.71,38.71,0,0,1-15.42-14.81,41.83,41.83,0,0,1-5.55-21.51A41.46,41.46,0,0,1,482.24,82a39,39,0,0,1,15.42-14.74,49.25,49.25,0,0,1,44.53,0A39,39,0,0,1,557.62,82a41.46,41.46,0,0,1,5.55,21.43,41.83,41.83,0,0,1-5.55,21.51,38.74,38.74,0,0,1-15.43,14.81,49.25,49.25,0,0,1-44.53,0Zm39.52-17.93q6.84-7,6.84-18.39T537.18,85a23.22,23.22,0,0,0-17.33-7q-10.49,0-17.25,7t-6.76,18.39q0,11.4,6.76,18.39t17.25,7A23.22,23.22,0,0,0,537.18,121.81Z"/><path d="M602.37,58.59v4.86h22.34v15.2H603V144H584V78.65H570.61V63.45H584V58.28q0-13.06,7.6-20.59T613,30.17q10.95,0,17.18,4.41l-5.32,14.28a18.17,18.17,0,0,0-10.49-3.34Q602.38,45.52,602.37,58.59Z"/><path d="M650.55,139.74a38.74,38.74,0,0,1-15.43-14.81,41.82,41.82,0,0,1-5.54-21.51A41.45,41.45,0,0,1,635.12,82a39,39,0,0,1,15.43-14.74,49.25,49.25,0,0,1,44.53,0A39,39,0,0,1,710.51,82a41.55,41.55,0,0,1,5.54,21.43,41.92,41.92,0,0,1-5.54,21.51,38.74,38.74,0,0,1-15.43,14.81,49.25,49.25,0,0,1-44.53,0Zm39.51-17.93q6.84-7,6.84-18.39T690.06,85a23.19,23.19,0,0,0-17.32-7q-10.49,0-17.25,7t-6.76,18.39q0,11.4,6.76,18.39t17.25,7A23.19,23.19,0,0,0,690.06,121.81Z"/><path d="M781.25,61.93V80a23.62,23.62,0,0,0-4.41-.46q-11.08,0-17.32,6.46t-6.23,18.62V144h-19V62.84h18.09V74.7Q760.59,61.93,781.25,61.93Z"/><path d="M924.11,70.82q9,8.9,9,26.67V144h-19V99.93q0-10.65-4.71-16T895.85,78.5q-9.58,0-15.35,6.3t-5.78,18V144h-19V99.93q0-10.65-4.71-16T837.49,78.5q-9.74,0-15.43,6.23t-5.7,18.08V144h-19V62.84h18.09V73.18a29.47,29.47,0,0,1,11.4-8.36A38.76,38.76,0,0,1,842,61.93a36.72,36.72,0,0,1,16.19,3.42A26.24,26.24,0,0,1,869.4,75.46a33.75,33.75,0,0,1,12.92-10,42,42,0,0,1,17.48-3.57Q915.15,61.93,924.11,70.82Z"/><path class="cls-1" d="M144,108H72a72,72,0,0,1,72-72Z"/><circle class="cls-2" cx="36" cy="36" r="36"/><rect class="cls-3" y="108" width="144" height="36"/><path class="cls-4" d="M0,108a36,36,0,0,1,72,0Z"/></g></g></svg>