<svg xmlns="http://www.w3.org/2000/svg" viewBox="0 0 20 20"><defs><style>.cls-1{fill:none;}.cls-2{fill:#fff;}</style></defs><title>vr-icon</title><g id="Layer_2" data-name="Layer 2"><g id="Layer_1-2" data-name="Layer 1"><rect class="cls-1" width="20" height="20"/><path class="cls-2" d="M16.47,4.74H3.53a1.4,1.4,0,0,0-1.4,1.4v7.72a1.4,1.4,0,0,0,1.4,1.4H6.31a1.4,1.4,0,0,0,1.24-.74l1.57-2.95a1,1,0,0,1,1.76,0l1.57,2.95a1.4,1.4,0,0,0,1.24.74h2.78a1.4,1.4,0,0,0,1.4-1.4V6.14A1.4,1.4,0,0,0,16.47,4.74ZM6,11.61A1.61,1.61,0,1,1,7.61,10,1.61,1.61,0,0,1,6,11.61Zm8,0A1.61,1.61,0,1,1,15.61,10,1.61,1.61,0,0,1,14,11.61Z"/></g></g></svg>